<?xml version="1.0" encoding="UTF-8" standalone="no"?>
<svg width="51px" height="48px" viewBox="0 0 51 48" version="1.1" xmlns="http://www.w3.org/2000/svg" xmlns:xlink="http://www.w3.org/1999/xlink">
    <!-- Generator: Sketch 43.1 (39012) - http://www.bohemiancoding.com/sketch -->
    <title>Handshake</title>
    <desc>Created with Sketch.</desc>
    <defs></defs>
    <g id="Home" stroke="none" stroke-width="1" fill="none" fill-rule="evenodd">
        <g id="Desktop-HD" transform="translate(-97.000000, -1113.000000)" stroke="#9B9B9B" stroke-width="3">
            <g id="Voordelen" transform="translate(-17.000000, 1023.000000)">
                <g id="Handshake" transform="translate(116.000000, 92.000000)">
                    <path d="M24.490509,8.2586469 L19.8474918,14.1044213 C18.4586632,15.7767055 16.5722178,16.1608399 14.9444207,14.7340551 L14.9444207,14.7340551 C13.3152179,13.3072702 13.1226374,10.7930674 14.511466,9.12078309 L18.774945,3.98840116 C18.8775609,3.86420733 18.9956394,3.76167522 19.1109066,3.657699 L19.6464771,3.02517697 L21.2827085,1.24602825 C21.911055,0.562962228 22.7952384,0.187492531 23.7103472,0.214930701 L42.2205652,0.783911704 C43.7091984,0.830123359 44.9715143,1.92187371 45.2681163,3.42086427 L46.7862691,11.091999 C47.3485479,13.9340158 46.0384383,16.819356 43.5559774,18.1999292" id="Stroke-1" stroke-linecap="round"></path>
                    <path d="M14.1483745,2.65403962 C13.3091734,2.78112167 12.4952748,3.07716508 11.7586896,3.53350518 C11.0206987,3.99128938 10.3614268,4.61081438 9.83288469,5.38341549 L8.33441169,7.54814271 L6.83734439,9.71142581 L5.34027708,11.876153 L3.84180408,14.0394361 C3.34559304,14.7658256 3.01103716,15.5600884 2.83110794,16.377457 C2.65117873,17.1933816 2.62728188,18.0324119 2.75098321,18.8483365 C2.87468455,19.664261 3.14738977,20.4556356 3.56066468,21.1762486" id="Stroke-3" stroke-linecap="round"></path>
                    <path d="M42.2985814,22.7784933 L24.4912119,8.25936896" id="Stroke-5" stroke-linecap="round"></path>
                    <path d="M10.5093061,22.0323195 L10.3237541,21.8561376 C8.86745199,20.4683438 6.57194879,20.5578789 5.22247968,22.0539812 L1.11222165,26.6087175 C-0.238653163,28.1048198 -0.151499949,30.4630583 1.30480214,31.849408 L1.49035415,32.0255899 C2.65989405,33.1404461 4.50557421,33.0682404 5.58936659,31.8667373 L10.6639328,26.2433566 C11.7491308,25.0418535 11.678846,23.1471757 10.5093061,22.0323195 Z" id="Stroke-7"></path>
                    <path d="M15.7437,26.4523199 L15.558148,26.276138 C14.1018459,24.8883442 11.8063427,24.9778793 10.4568736,26.4739816 L6.34661557,31.0287179 C4.99574075,32.5248202 5.08289396,34.8830587 6.53919605,36.2694084 L6.72474806,36.4455903 C7.89428796,37.5604465 9.73996812,37.4882408 10.8237605,36.2867377 L15.8983267,30.663357 C16.9835248,29.4618539 16.9132399,27.5671761 15.7437,26.4523199 Z" id="Stroke-9"></path>
                    <path d="M20.7332215,31.2047554 L20.5476695,31.0285734 C19.0913674,29.6407797 16.7958642,29.7303148 15.4463951,31.2264171 L11.3361371,35.7811533 C9.98526225,37.2772557 10.0724155,39.6354942 11.5287176,41.0218438 L11.7142696,41.1980258 C12.8838095,42.312882 14.7294896,42.2406762 15.813282,41.0391732 L20.8878482,35.4157924 C21.9730462,34.2142894 21.9027614,32.3196116 20.7332215,31.2047554 Z" id="Stroke-11"></path>
                    <path d="M40.0334413,29.3175869 C41.6991922,30.696716 43.9047308,30.7487041 44.9365124,29.4345602 L45.1614239,29.1471814 C46.1917998,27.8330375 45.6730976,25.6293192 44.0073467,24.2501901 L35.8079161,17.4642974" id="Stroke-13" stroke-linecap="round"></path>
                    <path d="M34.8303944,33.4985864 C36.2037604,34.6351043 38.1717362,34.4906929 39.2035178,33.1765489 L39.4284293,32.8891702 C40.4588052,31.5750263 40.1776658,29.5691516 38.8042998,28.4311896 L32.5587881,23.7132685" id="Stroke-15" stroke-linecap="round"></path>
                    <path d="M30.8356847,38.3428676 C32.2090507,39.4793854 34.1770264,39.334974 35.208808,38.0208301 L35.4337196,37.7334514 C36.4640955,36.4193074 36.1829561,34.4134328 34.8095901,33.2754708 L29.0631008,29.1380835" id="Stroke-17" stroke-linecap="round"></path>
                    <path d="M22.0142332,40.1224495 L26.4927838,43.1392041 C27.8675555,44.2771661 29.8341256,44.1313106 30.8659072,42.8171666 L31.0908187,42.5297879 C32.1211946,41.215644 31.8414609,39.2097693 30.4666892,38.0718073 L25.434294,34.2968927" id="Stroke-19" stroke-linecap="round"></path>
                </g>
            </g>
        </g>
    </g>
</svg>