<?xml version="1.0" encoding="UTF-8" standalone="no"?>
<svg width="34px" height="46px" viewBox="0 0 34 46" version="1.1" xmlns="http://www.w3.org/2000/svg" xmlns:xlink="http://www.w3.org/1999/xlink">
    <!-- Generator: Sketch 43.1 (39012) - http://www.bohemiancoding.com/sketch -->
    <title>Document</title>
    <desc>Created with Sketch.</desc>
    <defs></defs>
    <g id="Home" stroke="none" stroke-width="1" fill="none" fill-rule="evenodd" stroke-linecap="round">
        <g id="Desktop-HD" transform="translate(-968.000000, -1113.000000)" stroke="#9B9B9B" stroke-width="3">
            <g id="Voordelen" transform="translate(-17.000000, 1023.000000)">
                <g id="Document" transform="translate(986.000000, 92.000000)">
                    <path d="M4.1966619,41.6841091 C3.71874524,41.6841091 3.26407857,41.5886545 2.85074524,41.4168364 C2.43612024,41.2437455 2.06412024,40.9942909 1.7515369,40.6862909 C1.4376619,40.3770182 1.18449524,40.0104727 1.01012024,39.6032 C0.834453571,39.1946545 0.737578571,38.7466545 0.737578571,38.2757455 L0.737578571,29.5588364 L0.737578571,20.8419273 L0.737578571,12.1250182 L0.737578571,3.40810909 C0.737578571,2.9372 0.834453571,2.4892 1.01012024,2.08065455 C1.18449524,1.67338182 1.4376619,1.30683636 1.7515369,0.997563636 C2.06412024,0.689563636 2.43612024,0.440109091 2.85074524,0.268290909 C3.26407857,0.0952 3.71874524,-0.000254545454 4.1966619,-0.000254545454 L10.0220786,-0.000254545454 L22.7204536,-0.000254545454" id="Stroke-1"></path>
                    <path d="M27.4970369,0 C27.9749536,0 28.4296202,0.0954545455 28.8429536,0.267272727 C29.2575786,0.440363636 29.6295786,0.689818182 29.9421619,0.997818182 C30.2560369,1.30709091 30.5092036,1.67363636 30.6835786,2.08090909 C30.8592452,2.48945455 30.9561202,2.93745455 30.9561202,3.40836364 L30.9561202,12.1252727 L30.9561202,20.8421818 L30.9561202,29.5590909 L30.9561202,38.276 C30.9561202,38.7469091 30.8592452,39.1949091 30.6835786,39.6021818 C30.5092036,40.0107273 30.2560369,40.3772727 29.9421619,40.6865455 C29.6295786,40.9945455 29.2575786,41.244 28.8429536,41.4158182 C28.4296202,41.5889091 27.9749536,41.6843636 27.4970369,41.6843636 L21.6716202,41.6843636 L9.60357857,41.6843636" id="Stroke-3"></path>
                    <path d="M7.16349107,11.5862069 L24.5028244,11.5862069" id="Stroke-5"></path>
                    <path d="M7.16349107,20.2758621 L24.5028244,20.2758621" id="Stroke-7"></path>
                    <path d="M7.16349107,29.6896552 L24.5028244,29.6896552" id="Stroke-9"></path>
                </g>
            </g>
        </g>
    </g>
</svg>