<?xml version="1.0" encoding="UTF-8" standalone="no"?>
<svg width="24px" height="34px" viewBox="0 0 24 34" version="1.1" xmlns="http://www.w3.org/2000/svg" xmlns:xlink="http://www.w3.org/1999/xlink">
    <!-- Generator: Sketch 43.1 (39012) - http://www.bohemiancoding.com/sketch -->
    <title>Page 1</title>
    <desc>Created with Sketch.</desc>
    <defs></defs>
    <g id="Home" stroke="none" stroke-width="1" fill="none" fill-rule="evenodd" stroke-linecap="round">
        <g id="Desktop-HD" transform="translate(-1186.000000, -62.000000)" stroke="#9B9B9B" stroke-width="3">
            <g id="Header" transform="translate(0.000000, -239.000000)">
                <g id="Menu" transform="translate(0.000000, 238.000000)">
                    <path d="M1190.90736,81.7608839 C1190.00908,82.78723 1189.28247,84.0093799 1188.7795,85.3670149 C1188.27747,86.7237219 1188,88.2159141 1188,89.7823446 L1188,91.0555334 L1188,92.3287222 L1188,93.601911 L1188,94.8750998 L1192.96377,94.8750998 L1197.92753,94.8750998 L1202.89037,94.8750998 L1207.85414,94.8750998 L1207.85414,93.601911 L1207.85414,92.3287222 L1207.85414,91.0555334 L1207.85414,89.7823446 C1207.85414,88.2159141 1207.57667,86.7237219 1207.07463,85.3670149 C1206.57167,84.0093799 1205.84506,82.78723 1204.94677,81.7608839 C1204.04849,80.7345379 1202.97853,79.9039956 1201.79164,79.3295759 C1201.79164,79.3295759 1199.47819,78.4609864 1196.34718,78.0304036 C1195.06286,77.8540874 1193.82864,77.3269947 1192.90809,76.4147901 C1192.25665,75.763348 1191.74533,75.0107561 1191.39177,74.1765019 C1191.03914,73.3413198 1190.84333,72.4235474 1190.84333,71.460304 C1190.84333,70.4961326 1191.03914,69.5783602 1191.39177,68.744106 C1191.74533,67.9089238 1192.25665,67.1572599 1192.88767,66.5253054 C1193.5187,65.8942788 1194.27129,65.3829618 1195.10554,65.0303293 C1195.94073,64.6767689 1196.8585,64.481893 1197.82174,64.481893 C1198.78591,64.481893 1199.70369,64.6767689 1200.53794,65.0303293 C1201.37312,65.3829618 1202.12479,65.8942788 1202.75674,66.5253054 C1203.38777,67.1572599 1203.89908,67.9089238 1204.25172,68.744106 C1204.60528,69.5783602 1204.80015,70.4961326 1204.80015,71.460304 C1204.80015,72.4235474 1204.60528,73.3413198 1204.25172,74.1765019 C1203.89908,75.0107561 1203.38777,75.763348 1202.75674,76.3943746" id="Page-1"></path>
                </g>
            </g>
        </g>
    </g>
</svg>