<?xml version="1.0" encoding="UTF-8" standalone="no"?>
<svg width="47px" height="42px" viewBox="0 0 47 42" version="1.1" xmlns="http://www.w3.org/2000/svg" xmlns:xlink="http://www.w3.org/1999/xlink">
    <!-- Generator: Sketch 43.1 (39012) - http://www.bohemiancoding.com/sketch -->
    <title>leden</title>
    <desc>Created with Sketch.</desc>
    <defs></defs>
    <g id="Home" stroke="none" stroke-width="1" fill="none" fill-rule="evenodd" stroke-linecap="round">
        <g id="Desktop-HD" transform="translate(-532.000000, -1116.000000)" stroke="#9B9B9B" stroke-width="3">
            <g id="Voordelen" transform="translate(-17.000000, 1023.000000)">
                <g id="leden" transform="translate(550.000000, 94.000000)">
                    <path d="M4.2351389,22.4152209 C3.12210588,23.7038172 2.22179096,25.2382487 1.59858446,26.9427842 C0.976527784,28.6461547 0.632729364,30.5196292 0.632729364,32.4863113 L0.632729364,34.0848231 L0.632729364,35.6833349 L0.632729364,37.2818468 L0.632729364,38.8803586 L6.78315662,38.8803586 L12.9335839,38.8803586 L19.0828613,38.8803586 L25.2332886,38.8803586 L25.2332886,37.2818468 L25.2332886,35.6833349 L25.2332886,34.0848231 L25.2332886,32.4863113 C25.2332886,30.5196292 24.8894901,28.6461547 24.2674335,26.9427842 C23.644227,25.2382487 22.743912,23.7038172 21.630879,22.4152209 C20.517846,21.1266246 19.1920949,20.0838637 17.7214655,19.3626692 C17.7214655,19.3626692 14.8549456,18.2721393 10.9754277,17.7315347 C9.3840664,17.5101664 7.85479584,16.8483919 6.71416697,15.7031024 C6.70611818,15.6949468 6.69691956,15.685626 6.68887076,15.6774703 C5.90698807,14.885205 5.27343312,13.9403121 4.83534885,12.8928907 C4.3984144,11.8443043 4.1558008,10.6920242 4.1558008,9.48265452 C4.1558008,8.27211971 4.3984144,7.11983969 4.83534885,6.07241833 C5.27343312,5.02383186 5.90698807,4.08010405 6.68887076,3.28667362 C7.47075346,2.49440829 8.40326355,1.85244036 9.43695847,1.40970385 C10.4718032,0.96580225 11.6089826,0.721132075 12.8025035,0.721132075 C13.9971743,0.721132075 15.1343537,0.96580225 16.1680486,1.40970385 C17.2028933,1.85244036 18.1342536,2.49440829 18.9172861,3.28667362 C19.6991688,4.08010405 20.3327238,5.02383186 20.7696582,6.07241833 C21.2077425,7.11983969 21.4492063,8.27211971 21.4492063,9.48265452 C21.4492063,10.6920242 21.2077425,11.8443043 20.7696582,12.8928907 C20.3327238,13.9403121 19.6991688,14.885205 18.9172861,15.6774703" id="Page-1"></path>
                    <path d="M41.2319901,26.9573278 C42.0379795,27.8904493 42.6899317,29.0015893 43.1412191,30.2359082 C43.591674,31.4693833 43.8406314,32.8260373 43.8406314,34.2501864 L43.8406314,35.4077295 L43.8406314,36.5652725 L43.8406314,37.7228155 L43.8406314,38.8803586 L39.3868738,38.8803586 L34.9331161,38.8803586 L30.4801911,38.8803586 L26.0264334,38.8803586 L26.0264334,37.7228155 L26.0264334,36.5652725 L26.0264334,35.4077295 L26.0264334,34.2501864 C26.0264334,32.8260373 26.2753909,31.4693833 26.7258457,30.2359082 C27.1771332,29.0015893 27.8290854,27.8904493 28.6350748,26.9573278 C29.4410642,26.0242064 30.4010909,25.2691036 31.4660294,24.7468594 C31.4660294,24.7468594 33.5417852,23.9571653 36.3510913,23.565693 C37.5034564,23.4053919 38.6108592,22.9261758 39.4368318,22.0968283 C39.4426602,22.0909224 39.4493213,22.0841729 39.4551497,22.0782671 C40.0213407,21.5045577 40.4801218,20.8203249 40.7973553,20.0618474 C41.1137561,19.3025261 41.2894418,18.4681165 41.2894418,17.592366 C41.2894418,16.7157718 41.1137561,15.8813621 40.7973553,15.1228846 C40.4801218,14.3635634 40.0213407,13.6801743 39.4551497,13.1056212 C38.8889588,12.5319118 38.2136929,12.0670385 37.4651552,11.7464362 C36.7157849,11.4249902 35.8923101,11.2478152 35.0280364,11.2478152 C34.1629299,11.2478152 33.3394552,11.4249902 32.5909175,11.7464362 C31.8415472,12.0670385 31.1671139,12.5319118 30.6000903,13.1056212 C30.0338994,13.6801743 29.5751182,14.3635634 29.2587174,15.1228846 C28.941484,15.8813621 28.7666309,16.7157718 28.7666309,17.592366 C28.7666309,18.4681165 28.941484,19.3025261 29.2587174,20.0618474 C29.5751182,20.8203249 30.0338994,21.5045577 30.6000903,22.0782671" id="Page-1"></path>
                </g>
            </g>
        </g>
    </g>
</svg>